<!-- seasonal_activation.motif_assets[0] — Autumn Study (10-01..11-15).
     Burnt-sienna and raw-sienna fallen-leaf shapes as gestural marks. Applied
     by js/main.js only while the range is live; inert the rest of the year. -->
<svg xmlns="http://www.w3.org/2000/svg" viewBox="0 0 240 60" width="240" height="60">
  <title>Autumn Study motif</title>
  <path
    d="M18 40 C26 22 44 22 50 38 C40 48 24 50 18 40z"
    fill="#CC6600"
    opacity="0.75"
  />
  <path d="M34 40 C36 30 40 24 48 20" stroke="#8B3A00" stroke-width="2" fill="none" />
  <path
    d="M92 42 C100 24 118 26 122 40 C112 50 98 51 92 42z"
    fill="#8B3A00"
    opacity="0.6"
  />
  <path
    d="M168 38 C176 20 194 22 200 36 C190 47 174 48 168 38z"
    fill="#CC6600"
    opacity="0.5"
  />
  <path
    d="M12 52 C60 44 120 56 228 46"
    stroke="#8B3A00"
    stroke-width="3"
    stroke-linecap="round"
    fill="none"
    opacity="0.5"
  />
</svg>
